<svg width="31" height="42" viewBox="0 0 31 42" fill="none" xmlns="http://www.w3.org/2000/svg">
<path d="M10.6685 0.405715C11.0445 0.313715 11.4295 0.512715 11.7265 0.731715C11.5175 6.75471 11.5765 12.7807 11.5815 18.8127C11.5665 19.3297 11.4875 19.8947 11.8035 20.3467C13.4645 19.7337 14.8735 18.5217 16.6135 18.0537C19.7465 17.0607 23.8365 17.7007 25.6415 20.7147C27.1215 22.9417 26.6665 25.7017 26.7895 28.2167C26.6745 30.3927 26.8655 32.5837 26.7495 34.7557C26.9275 36.0457 26.5195 37.5287 27.3265 38.6587C28.0035 39.4027 29.1235 39.1867 29.9995 39.4467C30.5295 39.9737 30.4425 40.9507 29.9725 41.4927C25.5605 41.2467 21.1325 41.2467 16.7175 41.4157C16.1505 40.9397 16.2885 40.0347 16.5865 39.4267C17.2745 39.2207 18.0765 39.2857 18.6655 38.8227C19.2005 38.2827 19.0725 37.4527 19.1755 36.7637C19.2065 33.0367 19.1795 29.3087 19.1905 25.5817C19.2155 23.6987 17.7005 21.7397 15.6995 21.8537C14.0955 21.6747 11.9545 22.3997 11.6445 24.1807C11.4775 27.6027 11.6235 31.0377 11.5665 34.4647C11.5505 35.7157 11.5915 36.9707 11.7725 38.2087C11.9715 39.0277 12.9205 39.2437 13.6505 39.2647C14.7165 39.2527 14.7185 40.8257 14.1645 41.4017C13.1295 41.4337 12.0895 41.2897 11.0545 41.2817C7.64348 41.2167 4.23448 41.2597 0.826478 41.3547C0.398478 40.8007 0.379478 39.9807 0.791478 39.4197C1.61248 39.0867 2.64348 39.3887 3.35548 38.7557C4.02848 38.0967 3.91948 37.0787 4.01948 36.2227C4.03148 27.1877 4.02048 18.1527 4.02448 9.11971C4.02948 8.39371 4.00448 7.65771 3.84748 6.94971C3.53248 6.05471 2.53348 5.77571 1.85248 5.24471C1.42248 4.70071 1.50548 3.48871 2.34748 3.41171C5.20548 2.65471 7.92348 1.48271 10.6685 0.405715Z" fill="black"/>
<path d="M23.0125 2.85471C25.5825 2.62971 27.7555 5.15271 27.3585 7.65671C27.3425 11.2757 22.1975 12.9117 19.7595 10.5067C18.3055 9.05771 18.0865 6.56471 19.1845 4.84771C20.0365 3.61271 21.5075 2.83071 23.0125 2.85471Z" fill="black"/>
</svg>
